<?xml version="1.0" encoding="UTF-8"?>
<svg width="232px" height="232px" viewBox="0 0 232 232" version="1.1" xmlns="http://www.w3.org/2000/svg" xmlns:xlink="http://www.w3.org/1999/xlink">
    <!-- Generator: Sketch 58 (84663) - https://sketch.com -->
    <title>Shape 2</title>
    <desc>Created with Sketch.</desc>
    <g id="Page-1" stroke="none" stroke-width="1" fill="none" fill-rule="evenodd">
        <g id="RTUitlab_landing" transform="translate(-602.000000, -271.000000)" fill="#FFFFFF" fill-rule="nonzero">
            <g id="Group-5" transform="translate(602.000000, 271.000000)">
                <g id="Logo_all">
                    <g id="Shape-2">
                        <path d="M232,116.131278 C231.657602,182.212639 177.338025,233.740132 112.78047,231.954985 C50.8687164,230.276666 -0.822037469,179.516645 0.00990437436,114.419223 C0.858824622,49.3471028 54.6492413,-1.46070961 118.74272,0.0320668205 C180.26397,1.47424066 231.765132,51.4639778 232,116.131278 Z M51.7770611,113.320023 C56.5876092,118.495543 57.7506299,124.061828 55.0340851,130.212854 C54.3662679,131.733743 55.0850203,132.284749 56.0244921,133.077523 C65.1139933,140.749818 75.2032766,147.16952 86.0196742,152.163133 C106.320187,161.600517 127.741275,165.235469 150.056558,164.032252 C153.856891,163.821408 157.071469,163.69209 157.979814,158.567172 C158.441061,156.000497 161.53679,153.875188 163.520433,151.61775 C164.018467,151.055499 164.816452,150.740638 165.518226,150.282404 C158.090173,118.607993 141.870137,92.6207517 116.422338,72.3740928 C108.866948,77.5102558 102.729254,77.1953952 95.5134323,71.1258956 C77.882871,81.6907016 62.9216889,96.1262416 51.7770611,113.325645 L51.7770611,113.320023 Z M163.746812,176.739125 C161.816933,174.422651 160.167198,172.331077 158.370317,170.360387 C157.838193,169.843987 157.115852,169.567509 156.372525,169.595726 C143.237664,171.077683 129.955392,170.646766 116.945839,168.316605 C92.5535303,164.001328 70.9881263,153.698079 52.1449265,137.780753 C50.5914025,136.47633 49.521763,136.324523 47.6739466,137.075128 C45.7587292,137.843247 43.6980686,138.187645 41.6352939,138.084368 C39.4648878,137.949428 38.7206677,138.753447 38.0415315,140.614498 C34.0826885,151.605173 31.5014062,163.038394 30.3559735,174.655985 C30.2690158,175.877372 30.5957287,177.092565 31.2841263,178.108206 C37.7270691,187.042943 45.6032749,194.865815 54.5983061,201.264514 C76.8192652,216.975681 101.49832,223.335677 128.635471,220.344502 C134.249663,219.73446 138.698005,218.261362 142.396468,213.44006 C151.20543,201.936404 158.695737,189.800216 163.746812,176.739125 L163.746812,176.739125 Z M183.789819,157.023793 C194.786166,153.248278 204.96755,147.929383 214.659389,141.62655 C217.653248,139.681161 219.260537,137.409667 219.486916,133.912466 C219.668019,131.151813 220.253774,128.41084 220.50845,125.647376 C222.681685,102.448899 217.517421,80.9146857 205.457094,60.9885099 C204.997522,60.1314874 204.269368,59.4465781 203.382898,59.0374989 C191.652128,55.0913244 179.380759,52.958949 166.998177,52.7149863 C166.43223,52.7149863 165.549353,52.8583603 165.325804,53.2547473 C164.109018,55.3294535 163.002592,57.4716299 161.998036,59.655975 C161.805614,60.0776633 162.128204,60.8338909 162.399859,61.3427281 C176.64757,88.0046709 181.704305,116.370234 177.892653,146.24263 C177.49932,149.318143 177.39745,151.676786 180.606368,153.332616 C181.8656,153.965148 182.604161,155.590053 183.789819,157.023793 L183.789819,157.023793 Z M42.0795621,44.8097371 C40.4807623,45.3494981 38.3641212,45.4310245 37.365225,46.5217915 C29.0921086,55.5746627 22.6153623,66.0990818 18.2758384,77.5411796 C17.8722135,78.5904573 17.8363252,79.7442575 18.1739679,80.8162917 C22.3051526,91.2683641 27.8433685,101.115879 34.6373613,110.089891 C35.0561619,110.629651 36.3776478,110.778648 37.2463762,110.713989 C39.292274,110.570615 41.3947665,109.727239 43.3444533,110.019609 C45.7044516,110.371016 46.8957697,109.70756 48.1550014,107.807151 C58.8760976,91.7335433 72.8869003,78.0853227 89.2738684,67.7523896 C91.5206774,66.3298945 93.6514672,65.2447501 92.386576,62.0511643 C92.2154524,61.4386295 92.2583451,60.7865587 92.5082546,60.2013585 C93.2609639,58.2897051 92.3214921,57.5025537 90.694395,56.7631936 C75.280833,49.7912811 59.1513483,46.0129543 42.0795621,44.8097371 L42.0795621,44.8097371 Z M140.492057,40.4045005 C130.892178,29.2199628 119.536322,19.649885 106.863496,12.0642384 C106.079632,11.6628754 105.19109,11.5088864 104.316735,11.6228714 C86.4487271,13.5078165 69.3964901,20.0384574 54.8784497,30.5566741 C51.3639199,33.0868036 48.0870877,35.9149262 44.6914068,38.6081085 C62.4106108,40.0813984 79.7160607,44.723319 95.7737678,52.3101656 C102.958463,45.7486963 110.663829,45.8892591 117.407085,52.369202 C118.175892,52.9651814 119.164312,53.206581 120.12363,53.0326581 C124.325785,52.0234176 128.443049,50.6262238 132.667842,49.7406785 C135.480598,49.1475037 137.68496,48.5711964 138.069804,45.1133527 C138.265056,43.5474836 139.575223,42.1137436 140.486397,40.387633 L140.492057,40.4045005 Z M171.446519,147.310907 C171.678557,145.877167 171.924744,144.744231 172.054912,143.594428 C173.489837,130.816588 173.138449,117.902958 171.01074,105.220797 C168.623026,91.1418129 163.957808,77.5394521 157.195977,64.9411345 C156.664131,64.2359092 155.818651,63.8337789 154.93219,63.8644238 C147.368311,65.0985648 142.441744,62.8495608 138.519732,56.3864854 C137.912015,55.6782447 136.996635,55.3063119 136.063523,55.3884899 C132.534844,56.0941149 129.07125,57.120223 125.55672,57.9017519 C122.565691,58.5708306 120.007611,59.4338859 120.746172,63.3499642 C120.813919,64.0731579 120.664233,64.8000662 120.316052,65.4387267 C119.631257,66.8893343 120.316052,67.5977705 121.40267,68.5086172 C140.694134,83.8542697 155.563168,103.990146 164.505181,126.878706 C167.091558,133.42893 169.046904,140.229356 171.423881,147.313719 L171.446519,147.310907 Z M117.630634,11.1027892 C117.865502,11.5132324 117.913608,11.7128315 118.043776,11.7999804 C127.903638,18.6516062 136.879698,26.6796655 144.770615,35.7040821 C145.265818,36.2663331 146.649558,36.4546872 147.48716,36.2663331 C154.861447,34.6470502 161.236838,37.6719606 164.349545,44.5848367 C165.037171,46.1057257 165.905899,46.3812287 167.405658,46.4880564 C172.804791,46.8760096 178.206754,47.2920754 183.56627,48.0201904 C188.345691,48.6667791 193.062858,49.7406785 197.896044,50.6430914 C179.955529,26.5450131 147.722028,10.8244749 117.630634,11.1027892 Z M24.5323806,167.863993 C24.9172244,167.324232 25.0756896,167.206159 25.0983274,167.048729 C26.6711085,156.586854 29.3398881,146.316871 33.0611994,136.406049 C33.1970191,135.770825 33.0322498,135.1088 32.6141014,134.609657 C27.0225467,128.675098 26.7225948,122.265436 30.4436953,115.909188 C25.0190949,106.845702 19.7444704,98.0689639 14.3142106,89.0448353 C7.6332082,116.595135 10.7827023,142.722939 24.5323806,167.863993 L24.5323806,167.863993 Z M215.468693,148.868343 C206.263844,154.40769 196.548897,159.063532 186.455429,162.77281 C185.735954,163.192762 185.251537,163.918791 185.142432,164.740689 C184.599123,170.484083 181.616583,174.450763 176.452318,176.764426 C175.139322,177.351979 174.768627,177.995756 174.7375,179.345158 C174.632799,184.200196 174.454526,189.055233 174.194191,193.882158 C173.98762,197.162893 173.526373,200.42676 173.107573,204.283802 C193.747654,190.348411 207.868027,172.131478 215.468693,148.868343 L215.468693,148.868343 Z M149.343465,215.964567 C154.069121,213.858937 158.86835,211.621178 163.760961,209.58864 C165.608777,208.821168 166.341678,207.581404 166.590695,205.773767 C167.091558,202.04042 167.765035,198.323941 168.127241,194.573727 C168.514914,190.63797 168.628103,186.702213 168.840334,183.120674 L149.343465,215.964567 Z" id="Shape"></path>
                    </g>
                </g>
            </g>
        </g>
    </g>
</svg>